<?xml version="1.0" encoding="utf-8"?>
<!-- Generate more at customizr.net -->
<!DOCTYPE svg PUBLIC "-//W3C//DTD SVG 1.1//EN" "http://www.w3.org/Graphics/SVG/1.1/DTD/svg11.dtd">
<svg id="shopping-cart-1" class="custom-icon" version="1.1" xmlns="http://www.w3.org/2000/svg" xmlns:xlink="http://www.w3.org/1999/xlink" viewBox="0 0 100 100" style="height:100px;width:100px;"><rect class="outer-shape" x="0" y="0" width="100" height="100" rx="20" ry="20" style="opacity: 0.75; fill: rgb(250, 5, 15);"></rect>
	<path class="inner-shape" style="opacity:1;fill:#f7f7f7;" transform="translate(25,25) scale(0.5)" d="M74.277,72.019c-2.009,0-3.735,0.725-5.178,2.174 c-1.444,1.45-2.165,3.182-2.165,5.198c0,2.079,0.721,3.844,2.165,5.293c1.443,1.45,3.168,2.174,5.178,2.174 c2.071,0,3.827-0.724,5.272-2.174c1.443-1.449,2.165-3.213,2.165-5.293c0-2.016-0.722-3.748-2.165-5.198 C78.105,72.744,76.349,72.019,74.277,72.019z M37.845,54.251h40.386v-5.954H37.845V54.251z M42.27,72.019 c-2.009,0-3.751,0.725-5.225,2.174c-1.475,1.45-2.212,3.182-2.212,5.198c0,2.079,0.737,3.844,2.212,5.293 c1.474,1.45,3.215,2.174,5.225,2.174c2.071,0,3.827-0.724,5.272-2.174c1.443-1.449,2.165-3.213,2.165-5.293 c0-2.016-0.722-3.748-2.165-5.198C46.097,72.744,44.341,72.019,42.27,72.019z M32.291,35.726v5.954H83.88v-5.954H32.291z M20.429,23.061l-3.107-8.506L3.39,11.247l-1.412,5.765l10.92,2.646L30.22,67.104h57.802l10.261-44.043H20.429z M83.315,61.15 H34.362L22.595,29.016h68.251L83.315,61.15z"></path>
</svg>

